<svg xmlns="http://www.w3.org/2000/svg" width="46" height="39" fill="none"><path fill="#4F4F4F" d="M23 .769C14.422.769 6.551 3.866.412 8.866c-.221.182-.366.45-.403.747-.037.296.038.596.207.834s.418.393.694.433.555-.04.776-.222C7.47 5.946 14.89 3.017 23 3.017s15.529 2.93 21.314 7.64c.221.182.5.262.776.223s.525-.196.694-.433c.17-.238.244-.538.207-.834a1.15 1.15 0 0 0-.403-.747C39.448 3.866 31.578.77 23 .77m0 10.68c-6.147 0-11.878 2-16.333 5.866a1.1 1.1 0 0 0-.309.33q-.12.2-.156.436c-.024.156-.016.316.022.468.037.152.104.295.197.417q.14.186.338.295a.99.99 0 0 0 1.215-.207c4.048-3.513 9.301-5.357 15.026-5.357s10.978 1.844 15.026 5.357q.158.169.365.255a.98.98 0 0 0 .85-.048q.198-.11.338-.295c.093-.122.16-.265.197-.417a1.2 1.2 0 0 0-.135-.904 1.1 1.1 0 0 0-.308-.33C34.878 13.449 29.147 11.448 23 11.448m0 10.117c-3.753 0-7.319 1.264-10.061 3.6a1.193 1.193 0 0 0-.168 1.587 1 1 0 0 0 1.474.188c2.342-1.995 5.444-3.127 8.755-3.127 3.31 0 6.413 1.132 8.754 3.127a1 1 0 0 0 1.475-.188 1.193 1.193 0 0 0-.168-1.587c-2.742-2.336-6.308-3.6-10.061-3.6m0 10.68c-1.732 0-3.136 1.51-3.136 3.372S21.268 38.99 23 38.99s3.136-1.51 3.136-3.372c0-1.863-1.404-3.373-3.136-3.373"/></svg>