<svg xmlns="http://www.w3.org/2000/svg" width="46" height="44" fill="none"><path fill="#4F4F4F" d="M27.28.798 11.7 12.47H0V31.37h11.7l15.58 11.673zm11.148 5.541a1.05 1.05 0 0 0-.63.263 1.12 1.12 0 0 0-.35.603c-.051.235-.027.481.068.701.096.22.257.401.46.518 3.264 1.93 5.885 7.185 5.885 13.496S41.24 33.47 37.977 35.4a1.1 1.1 0 0 0-.496.675c-.073.285-.034.587.107.842s.374.441.648.518c.273.077.565.039.81-.107C43.28 34.824 46 28.853 46 21.92S43.279 9 39.047 6.495a1.04 1.04 0 0 0-.619-.156m-5.583 4.447c-.233.01-.456.1-.635.255a1.12 1.12 0 0 0-.358.603c-.053.236-.03.483.064.705.095.221.257.404.461.521 2.01 1.235 3.761 4.765 3.761 9.05s-1.751 7.798-3.76 9.033a1.1 1.1 0 0 0-.316.289 1.14 1.14 0 0 0-.211.83q.03.22.137.412.11.192.28.327a1.06 1.06 0 0 0 .799.215q.212-.031.397-.145c2.987-1.835 4.814-6.077 4.814-10.96s-1.827-9.143-4.814-10.979a1.04 1.04 0 0 0-.619-.156"/></svg>